<svg width="12" height="20" viewBox="0 0 12 20" fill="none" xmlns="http://www.w3.org/2000/svg">
<path d="M2.8752 19.0999L11.3002 10.6999C11.4002 10.5999 11.4709 10.4916 11.5122 10.3749C11.5542 10.2582 11.5752 10.1332 11.5752 9.9999C11.5752 9.86657 11.5542 9.74157 11.5122 9.6249C11.4709 9.50824 11.4002 9.3999 11.3002 9.2999L2.8752 0.874902C2.64186 0.641569 2.3502 0.524902 2.0002 0.524902C1.6502 0.524902 1.3502 0.649902 1.1002 0.899902C0.850196 1.1499 0.725196 1.44157 0.725196 1.7749C0.725196 2.10824 0.850196 2.3999 1.1002 2.6499L8.4502 9.9999L1.1002 17.3499C0.866862 17.5832 0.750196 17.8706 0.750196 18.2119C0.750196 18.5539 0.875196 18.8499 1.1252 19.0999C1.3752 19.3499 1.66686 19.4749 2.0002 19.4749C2.33353 19.4749 2.6252 19.3499 2.8752 19.0999Z" fill="white"/>
</svg>
